<?xml version="1.0" standalone="no"?>
<!DOCTYPE svg PUBLIC "-//W3C//DTD SVG 20010904//EN"
 "http://www.w3.org/TR/2001/REC-SVG-20010904/DTD/svg10.dtd">
<svg version="1.0" xmlns="http://www.w3.org/2000/svg"
 width="288.000000pt" height="54.000000pt" viewBox="0 0 288.000000 54.000000"
 preserveAspectRatio="xMidYMid meet">

<g transform="translate(0.000000,54.000000) scale(0.100000,-0.100000)"
fill="#000000" stroke="none">
<path d="M1790 438 c-54 -28 -80 -69 -87 -140 -17 -171 132 -288 246 -193 64
55 85 194 41 272 -42 75 -124 100 -200 61z m102 -162 c16 -23 8 -86 -14 -108
l-21 -21 -19 23 c-24 30 -25 105 -1 118 18 11 44 5 55 -12z"/>
<path d="M685 440 c-4 -6 -4 -90 0 -186 l7 -174 52 -2 c129 -4 191 14 202 58
5 18 2 37 -8 54 -14 25 -13 28 8 53 50 58 36 149 -28 183 -41 22 -221 33 -233
14z m193 -163 c-2 -14 -11 -23 -25 -25 -19 -3 -23 1 -23 26 0 36 8 44 32 31
12 -6 18 -19 16 -32z m-20 -86 c19 -11 11 -45 -11 -49 -13 -3 -17 3 -17 27 0
32 6 37 28 22z"/>
<path d="M1374 394 c3 -26 6 -57 6 -70 0 -21 5 -24 34 -24 l33 0 6 -67 c4 -38
7 -87 7 -110 l0 -43 54 0 c64 0 66 3 66 103 0 104 5 117 46 117 l34 0 0 70 0
70 -146 0 -147 0 7 -46z"/>
<path d="M2062 413 c6 -16 32 -95 58 -178 l47 -150 40 -3 40 -3 23 81 c13 44
27 77 31 73 3 -5 14 -41 24 -81 l17 -73 41 3 40 3 57 178 57 177 -38 0 c-41 0
-39 3 -60 -92 -7 -32 -15 -55 -19 -53 -4 3 -11 26 -15 52 -14 98 -9 93 -86 93
-38 0 -69 -3 -69 -6 0 -3 5 -25 11 -49 11 -45 5 -100 -10 -91 -5 3 -11 20 -15
38 -3 17 -11 49 -17 70 l-10 38 -79 0 -80 0 12 -27z"/>
<path d="M2584 323 c4 -65 9 -146 12 -180 l6 -63 34 0 34 0 0 60 c0 33 4 60 9
60 5 0 46 -27 90 -60 l81 -60 0 53 c0 28 3 109 7 180 l6 127 -41 0 c-42 0 -42
0 -42 -36 l0 -36 -44 36 c-39 32 -51 36 -101 36 l-57 0 6 -117z"/>
</g>
</svg>
